<svg viewBox="0 0 91 91" xml:space="preserve" xmlns="http://www.w3.org/2000/svg"><path d="M27.62 38.631c-4.703-1.795-7.899-6.354-7.899-11.466 0-6.766 5.506-12.269 12.271-12.269 5.625 0 10.413 3.737 11.839 9.051l3.465-.044c.046 0 .092 0 .139.004.064.004.128.013.194.019l-.234-.868a16.016 16.016 0 0 0-1.606-3.878l-.573-.988 4.911-4.91-4.244-4.252-4.915 4.912-.988-.572a15.98 15.98 0 0 0-3.878-1.604l-1.104-.293v-6.95h-6.009v6.949l-1.103.293a15.957 15.957 0 0 0-3.879 1.604l-.989.572-4.914-4.912-4.246 4.246 4.916 4.916-.574.991a15.885 15.885 0 0 0-1.604 3.875l-.294 1.104H9.354v6.005H16.3l.294 1.104a16.107 16.107 0 0 0 1.603 3.881l.574.991-4.914 4.905 4.246 4.251 4.916-4.911.991.575a15.85 15.85 0 0 0 3.826 1.584 34.704 34.704 0 0 1-.217-3.739l.001-.176z" fill="#ffffff" class="fill-9ae0ff"></path><path d="M83.104 37.738c-.181-4.813-2.061-7.582-4.943-9.568-2.899-1.955-6.995-2.877-11.06-2.866-3.765-.011-7.475.782-9.979 1.911l-1.002.445-1.01-.445c-2.007-.911-4.806-1.586-7.783-1.823l-5.132.066c-3.03.344-5.918 1.228-8.121 2.711-2.879 1.987-4.764 4.764-4.939 9.566-.004.38-.016.735-.016 1.061.056 6.787 1.61 9.237 3.495 12.658 1.949 3.366 4.181 7.671 4.125 15.642-.008 9.254 1.56 14.679 3.264 17.552 1.735 2.883 2.316 3.313 4.21 3.313 1.998 0 2.688-2.016 2.773-3.079.384-3.915-.287-10.035 1.648-16.563.553-1.807 1.229-4.071 2.584-6.113 1.825-2.757 6.758-4.906 9.804 0 1.295 2.086 2.033 4.308 2.583 6.113 1.48 4.977 1.912 10.177 1.566 14.142-.485 5.517 2.75 5.501 2.859 5.501 1.718 0 2.475-.43 4.196-3.313 1.711-2.873 3.28-8.298 3.271-17.552-.054-7.983 2.178-12.275 4.129-15.646 1.887-3.426 3.427-5.868 3.488-12.654.004-.337-.006-.687-.01-1.059z" fill="#F4F2E8" class="fill-f4f2e8"></path><path d="m85.344 38.133-.008-.479c-.19-5.077-2.067-8.676-5.927-11.335-3.104-2.095-7.45-3.248-12.232-3.248h-.153c-2.974 0-6.061.476-8.656 1.297l.001-3.925h-7.887a20.614 20.614 0 0 0-.656-1.585l5.573-5.573-9.502-9.513-5.583 5.579a19.759 19.759 0 0 0-1.584-.656V.808H25.284v7.888c-.537.196-1.066.415-1.586.656L18.12 3.774l-9.508 9.503 5.581 5.581c-.241.515-.46 1.043-.657 1.585H5.648v13.445h7.888c.195.543.413 1.07.655 1.589L8.61 41.046l9.51 9.516 5.578-5.575c.519.239 1.047.458 1.586.654v7.888h5.94c1.756 3.185 3.329 7.01 3.283 13.564-.008 10.449 1.938 15.932 3.582 18.705 1.841 3.055 2.976 4.394 6.123 4.394 3.008 0 4.792-2.58 4.994-5.092.123-1.247.147-2.676.17-4.186.056-3.411.121-7.657 1.393-11.941l.045-.147c.528-1.719 1.124-3.668 2.268-5.389.634-.958 1.979-1.929 3.323-1.929 1.05 0 1.94.612 2.724 1.873 1.109 1.791 1.781 3.744 2.339 5.573 1.28 4.304 1.835 9.278 1.482 13.312-.245 2.779.289 4.908 1.589 6.325 1.36 1.485 3.017 1.602 3.492 1.602h.002c2.979 0 4.293-1.357 6.116-4.402 1.642-2.755 3.595-8.235 3.586-18.709-.047-7.21 1.864-11.121 3.854-14.554l.271-.494c1.839-3.325 3.43-6.197 3.493-13.236-.001-.216-.005-.437-.009-.665zm-60.947 2.186-1.484-.861-4.79 4.788-3.196-3.198 4.792-4.781-.861-1.487a15.31 15.31 0 0 1-1.532-3.706l-.445-1.648h-6.769v-4.52h6.769l.445-1.65a15.263 15.263 0 0 1 1.532-3.695l.867-1.485-4.797-4.797 3.194-3.192 4.79 4.788 1.48-.854a15.105 15.105 0 0 1 3.698-1.527l1.658-.44V5.271h4.52v6.779l1.66.44c1.291.342 2.533.856 3.691 1.525l1.481.856 4.792-4.788 3.194 3.198-4.786 4.79.859 1.485a15.266 15.266 0 0 1 1.506 3.612l-2.27.029a12.941 12.941 0 0 0-12.388-9.044c-7.178 0-13.015 5.838-13.015 13.012 0 5.247 3.178 9.941 7.902 11.963.013.852.049 1.643.106 2.378a15.017 15.017 0 0 1-2.603-1.187zm2.936-5.996a8.58 8.58 0 0 1-3.877-7.158c0-4.714 3.836-8.549 8.552-8.549a8.507 8.507 0 0 1 7.772 4.968c-2.686.535-5.066 1.463-6.971 2.748-2.932 2.023-4.71 4.604-5.476 7.991zm50.617 15.55-.253.46c-2.174 3.75-4.486 8.447-4.429 16.767.008 9.94-1.851 14.546-2.957 16.403-1.304 2.183-1.523 2.226-2.236 2.228-.369-.069-.869-.949-.683-3.075.406-4.632-.195-10.09-1.654-14.986-.647-2.134-1.438-4.415-2.82-6.642-1.595-2.569-3.909-3.982-6.516-3.982-3.073 0-5.752 1.973-7.043 3.925-1.501 2.258-2.229 4.637-2.815 6.548l-.053.166c-1.447 4.893-1.52 9.478-1.58 13.16-.021 1.479-.043 2.753-.151 3.856-.009.128-.175 1.029-.549 1.029-.899 0-.953 0-2.291-2.22-1.105-1.865-2.959-6.479-2.951-16.396.059-8.33-2.252-13.027-4.4-16.735l-.283-.515c-1.676-3.022-2.887-5.207-2.936-11.067 0-.169.003-.346.007-.532l.008-.446c.136-3.644 1.323-5.98 3.957-7.798 1.771-1.192 4.195-1.997 7.02-2.331l4.91-.062c2.619.218 5.144.809 6.96 1.631l.943.416 6.798 3.612a2.234 2.234 0 0 0 3.019-.923 2.233 2.233 0 0 0-.925-3.019l-2.333-1.24a25.998 25.998 0 0 1 5.309-.567h.153c3.847 0 7.396.905 9.719 2.472 2.652 1.829 3.842 4.166 3.979 7.752l.007.447c.004.203.008.399.008.568-.058 5.888-1.267 8.074-2.939 11.096z" fill="#13476b" class="fill-3b6a75"></path><path d="M40.259 45.701a2.23 2.23 0 0 1-2.122-1.544c-1.459-4.495.106-9.148 3.892-11.578a2.231 2.231 0 1 1 2.411 3.757c-2.053 1.318-2.88 3.908-2.057 6.444a2.234 2.234 0 0 1-2.124 2.921z" fill="#FFFFFF" class="fill-ffffff"></path></svg>