<svg viewBox="0 0 91 91" xml:space="preserve" xmlns="http://www.w3.org/2000/svg"><path d="M87.31 34.913c0 11.732-9.511 21.244-21.241 21.244-11.732 0-21.243-9.512-21.243-21.244 0-11.733 9.511-21.244 21.243-21.244 7.705 0 14.192 3.691 17.918 9.83 0 0-20.231 22.258-19.88 22.953 1.962 3.859 20.973-16.225 21.175-15.671.834 2.281 2.028 1.559 2.028 4.132z" fill="#ffffff" class="fill-9ae0ff"></path><path d="M43.276 34.697c0 8.875 5.152 16.569 12.622 20.25a48.996 48.996 0 0 0-.066 2.779c.005 12.012-2.306 17.686-3.679 19.994-1.938 3.225-2.555 3.393-4.061 3.393-.029 0-.785-.01-1.421-.703-.797-.869-1.116-2.477-.929-4.646.459-5.219-.222-11.379-1.864-16.902-.728-2.393-1.607-4.939-3.121-7.377-1.969-3.168-4.428-3.863-6.143-3.893-3.003-.027-5.696 1.91-6.995 3.869-1.625 2.453-2.441 5.115-3.098 7.258l-.045.148c-1.63 5.506-1.716 10.74-1.782 14.943-.027 1.764-.052 3.285-.185 4.615-.002.029-.227 2.686-2.244 2.686-1.675 0-2.098-.113-4.063-3.389-1.377-2.314-3.688-7.99-3.675-19.988.064-9.324-2.41-14.393-4.941-18.769l-.323-.588c-1.998-3.6-3.576-6.44-3.64-13.719 0-.205.006-.422.01-.648l.008-.559c.178-4.756 1.825-7.961 5.343-10.385 2.306-1.561 5.431-2.6 8.94-3.001l5.9-.082c3.297.269 6.492 1.015 8.774 2.056l1.135.502 8.019 4.254a1.001 1.001 0 0 0 1.35-.412 1.003 1.003 0 0 0-.414-1.349l-6.206-3.294c2.902-1.162 6.724-1.853 10.438-1.853h.181c4.81 0 9.278 1.155 12.267 3.167l.03.023c-9.312 2.78-16.122 11.419-16.122 21.62z" fill="#F4F2E8" class="fill-f4f2e8"></path><path d="M55.063 29.924a.998.998 0 0 0-1.341 1.412l9.979 14.75a.993.993 0 0 0 .826.438.997.997 0 0 0 .762-.352L90.31 16.674a.996.996 0 0 0-1.391-1.416l-4.995 4.089c-4.453-5.167-10.99-8.208-17.853-8.208-1.135 0-2.25.085-3.343.241-.408-.34-.837-.677-1.309-1.003-3.572-2.405-8.576-3.729-14.089-3.729h-.17c-4.465 0-9.135.909-12.481 2.431l-.271.117-.245-.107c-2.636-1.202-6.131-2.031-9.844-2.333-.067-.006-.131-.006-.209-.006l-5.998.079c-.075 0-.149.006-.223.013-4.12.465-7.747 1.69-10.509 3.557C2.994 13.425.851 17.534.635 23.388l-.008.497c-.005.272-.011.532-.011.794.068 8.104 1.91 11.425 4.042 15.266l.348.626c2.317 4.01 4.574 8.637 4.514 17.155-.01 12.146 2.241 18.482 4.137 21.664 2.067 3.451 3.342 4.963 6.838 4.963 3.312 0 5.263-2.857 5.471-5.629.144-1.441.17-3.102.197-4.859.065-4.008.145-8.994 1.643-14.053l.04-.135c.63-2.045 1.339-4.363 2.705-6.426.803-1.209 2.493-2.418 4.193-2.418h.054c1.321.02 2.479.814 3.439 2.363 1.318 2.121 2.115 4.432 2.772 6.598 1.509 5.064 2.157 10.93 1.74 15.689-.276 3.143.318 5.537 1.767 7.117 1.491 1.627 3.295 1.752 3.811 1.752 3.301 0 4.775-1.531 6.835-4.971 1.891-3.174 4.145-9.508 4.14-21.668-.001-.151.004-.299.005-.45 2.144.645 4.414.995 6.765.995 12.988 0 23.556-10.57 23.555-23.561 0-1.613-.164-3.224-.486-4.784l-3.902.806c.267 1.297.402 2.636.402 3.979 0 10.794-8.777 19.575-19.568 19.575-10.794 0-19.574-8.781-19.574-19.575 0-10.792 8.78-19.57 19.574-19.57 5.668 0 11.068 2.499 14.769 6.746l-16.61 13.593-9.169-5.543zM42.51 34.696c0 8.936 5.002 16.726 12.352 20.719a50.49 50.49 0 0 0-.044 2.313c.006 11.711-2.193 17.154-3.505 19.352-1.67 2.787-1.975 2.787-2.944 2.787-.055-.004-.329-.039-.581-.338-.242-.287-.785-1.219-.571-3.658.472-5.371-.224-11.699-1.912-17.373-.752-2.471-1.667-5.109-3.258-7.672-1.768-2.846-4.318-4.438-7.184-4.479-.039-.002-.079-.002-.119-.002-3.45 0-6.46 2.211-7.93 4.426-1.727 2.605-2.572 5.369-3.255 7.588l-.048.156c-1.677 5.666-1.763 10.994-1.832 15.275-.025 1.732-.051 3.232-.179 4.543-.002.016-.169 1.533-1.005 1.533-1.197 0-1.322 0-2.989-2.779-1.312-2.205-3.51-7.65-3.503-19.346.071-9.629-2.604-15.072-5.094-19.379l-.329-.595C6.594 34.19 5.159 31.603 5.1 24.658c0-.214.006-.444.011-.686l.009-.474c.16-4.384 1.598-7.197 4.79-9.398 2.124-1.436 5.016-2.4 8.374-2.792l5.775-.075c3.124.264 6.123.967 8.268 1.945l1.104.488 7.97 4.227a2.24 2.24 0 1 0 2.1-3.96l-3.598-1.908a30.667 30.667 0 0 1 7.271-.891h.144c3.594 0 6.959.672 9.586 1.863-8.451 3.581-14.394 11.96-14.394 21.699z" fill="#13476b" class="fill-3b6a75"></path><path d="M14.525 35.698a2.495 2.495 0 0 1-2.242-1.399c-2.634-5.406-2.5-13.229 4.021-17.63a2.487 2.487 0 0 1 3.458.672 2.489 2.489 0 0 1-.67 3.458c-4.078 2.752-4.108 7.667-2.331 11.316a2.49 2.49 0 0 1-2.236 3.583z" fill="#FFFFFF" class="fill-ffffff"></path></svg>