<svg viewBox="0 0 91 91" xml:space="preserve" xmlns="http://www.w3.org/2000/svg"><path fill="#ffffff" d="m55.883 78.931-10.362 9.091-10.339-9.091V46.563h20.701z" class="fill-9ae0ff"></path><path fill="#FFFFFF" d="M30.417 38.674h30.231v7.888H30.417z" class="fill-ffffff"></path><path d="M71.669 15.623c-.173-4.655-1.997-7.343-4.791-9.27-2.809-1.896-6.777-2.785-10.718-2.776-3.646-.009-7.244.756-9.667 1.854l-.973.436-.971-.437c-1.95-.889-4.668-1.54-7.547-1.766l-4.979.062c-2.938.336-5.736 1.188-7.867 2.628-2.792 1.927-4.617 4.618-4.784 9.27 0 .367-.037 5.504 4.189 14.886 2.102 4.664 3.175 8.165 3.175 8.165h37.565s1.414-4.344 3.143-8.088c2.247-4.877 3.932-9.458 4.245-13.928.024-.332-.015-.672-.02-1.036z" fill="#F4F2E8" class="fill-f4f2e8"></path><path fill="#13476b" d="m60.193 60.471-30.234-6.737.98-4.398 30.234 6.737z" class="fill-3b6a75"></path><g fill="#13476b" class="fill-3b6a75"><path d="M58.135 63.028h-4.504v3.383L37.435 62.8v-4.385h-4.506V61.8l-2.076-.463-.981 4.396 30.23 6.741.98-4.397-2.947-.657zM53.631 76.677H37.435v-6.248h-4.506v10.752h1.403l9.717 8.533c.425.375.955.561 1.486.561.53 0 1.062-.186 1.485-.561l9.713-8.533h1.401V75.04H53.63v1.637zm-8.096 8.345-4.374-3.84h8.745l-4.371 3.84zM73.933 15.906c-.005-.101-.011-.203-.013-.368-.183-4.944-2.014-8.451-5.781-11.052-3.022-2.039-7.258-3.162-11.928-3.162h-.105c-3.761 0-7.702.769-10.534 2.052l-.051.021-.037-.016c-2.24-1.021-5.188-1.717-8.304-1.962l-.104-.009-5.082.063-.228.015c-3.49.399-6.559 1.436-8.892 3.012-3.748 2.587-5.578 6.096-5.757 11.13-.001 1.42.313 6.757 4.39 15.805 2.011 4.462 3.063 7.865 3.074 7.9l.489 1.591h3.093v7.887h4.765v5.582l25.206 5.615h.001V48.813H62.9v-7.887H65.936l.507-1.555c.014-.043 1.396-4.268 3.046-7.845 1.992-4.323 4.078-9.452 4.445-14.7a7.635 7.635 0 0 0-.001-.92zM53.631 54.392l-16.196-3.609v-1.969h16.196v5.578zm4.765-10.082H32.669v-3.384h25.727v3.384zm7.002-14.669c-1.137 2.464-2.131 5.141-2.708 6.78H28.358a86.248 86.248 0 0 0-2.744-6.836c-3.882-8.618-3.991-13.431-3.992-13.882.126-3.495 1.267-5.736 3.794-7.481 1.693-1.144 4.025-1.918 6.751-2.243l4.759-.059c2.53.208 4.966.775 6.7 1.566l.925.415 9.684 5.097a2.25 2.25 0 0 0 3.042-.944 2.25 2.25 0 0 0-.944-3.042l-5.112-2.69a25.245 25.245 0 0 1 4.885-.493h.105c3.727 0 7.155.872 9.388 2.38 2.547 1.756 3.688 3.999 3.817 7.438.001.164.01.322.017.479.006.126.019.245.008.377-.253 3.606-1.462 7.535-4.043 13.138z"></path></g><path d="M30.508 23.749c-.662 0-1.311-.33-1.691-.931-1.264-1.989-1.355-4.731-.244-7.335 1.215-2.846 3.525-4.863 6.179-5.397a2.002 2.002 0 1 1 .789 3.926c-1.34.269-2.598 1.436-3.284 3.044-.584 1.366-.605 2.752-.058 3.616a2.003 2.003 0 0 1-1.691 3.077z" fill="#FFFFFF" class="fill-ffffff"></path></svg>